<?xml version="1.0" encoding="UTF-8" standalone="no"?>
<svg
   width="176"
   height="52"
   viewBox="0 0 176 52"
   fill="none"
   version="1.1"
   id="svg16"
   sodipodi:docname="__logo.svg"
   inkscape:version="1.2.2 (732a01da63, 2022-12-09)"
   xmlns:inkscape="http://www.inkscape.org/namespaces/inkscape"
   xmlns:sodipodi="http://sodipodi.sourceforge.net/DTD/sodipodi-0.dtd"
   xmlns="http://www.w3.org/2000/svg"
   xmlns:svg="http://www.w3.org/2000/svg">
  <defs
     id="defs20" />
  <sodipodi:namedview
     id="namedview18"
     pagecolor="#ffffff"
     bordercolor="#000000"
     borderopacity="0.25"
     inkscape:showpageshadow="2"
     inkscape:pageopacity="0.0"
     inkscape:pagecheckerboard="0"
     inkscape:deskcolor="#d1d1d1"
     showgrid="false"
     inkscape:zoom="7.6590909"
     inkscape:cx="116.91988"
     inkscape:cy="31.074184"
     inkscape:window-width="1920"
     inkscape:window-height="1017"
     inkscape:window-x="1272"
     inkscape:window-y="-8"
     inkscape:window-maximized="1"
     inkscape:current-layer="svg16" />
  <path
     d="m 7.76534,23.3826 2.64536,-1.3088 4.1813,-6.2819 1.28,-0.5234 1.3654,6.3691 -1.792,0.2617 -1.3654,-2.6174 -1.024,4.1007 h 4.5227 l 4.6933,1.2214 1.8774,-1.2214 3.1573,3.3154 1.3653,-6.1074 2.2187,2.2685 1.3653,-1.9195 2.2187,-0.6107 3.2427,-3.0537 0.512,-1.4833 2.6453,0.4363 1.1094,1.4832 -1.9627,4.1879 4.864,-2.5302 v -1.2215 l 1.8773,-0.4362 2.048,2.094 2.048,-2.5302 v -1.745 l 3.328,-2.3557 1.3654,-2.0067 h 2.1333 L 61.4401,3.40268 64.6828,0 l 1.1946,1.91946 -1.8773,2.44296 0.6827,1.57047 1.792,0.34899 1.4506,6.45642 v 5.4093 l 2.56,3.5772 1.28,4.9732 -4.4373,-2.8792 -1.9627,-8.2886 -1.1947,0.2617 -0.1706,5.5839 -3.2427,5.3222 -0.9387,8.1141 2.2187,0.5235 0.9387,-1.1343 2.1333,2.443 1.6213,7.3289 -0.1706,4.7114 h -2.048 l -0.768,-6.6309 -1.4507,2.0067 -3.1573,-0.698 -2.56,-2.1812 -2.9014,1.047 0.1707,4.7114 -2.304,0.6107 -3.4133,2.6175 -4.096,-0.5235 -1.6214,-0.9597 -2.56,0.4362 0.8534,1.047 -2.048,1.2215 -1.6214,-0.7853 -3.072,1.396 -4.6933,-2.3557 -1.792,-4.1879 -1.536,0.1745 -1.792,-1.4832 -0.0854,-1.1343 -5.7173,-0.6107 -0.9387,3.1409 -3.584,-1.6577 -1.792,-3.0537 H 8.19201 L 7.76534,45.7181 5.54667,46.4161 4.43734,50.8658 3.584,50.0805 0,40.745 4.26667,38.651 3.584,34.5503 2.90134,30.3624 4.77867,27.6577 4.18134,26 l 2.56,-2.7919 z m 56.74676,10.2953 3.9253,5.9328 1.28,-0.5235 -1.6213,-2.4429 -3.584,-3.8389 z M 24.4054,21.6376 v -1.745 l 2.9866,-2.1812 2.56,-1.3087 h -2.9866 l -2.6454,1.5705 -1.6213,1.4832 v 2.1812 z"
     fill="#ffffff"
     id="russiaMap" />
  <path
     id="russia"
     fill="#ffffff"
     d="M 171.651,41.0004 H 176 V 27.9095 h -6.116 c -3.764,0 -6.142,1.9091 -6.117,4.5682 -0.017,1.4915 0.875,2.7273 2.438,3.4602 l -2.574,5.0625 h 4.316 l 2.2,-4.3295 h 1.504 z m 0,-7.159 h -1.665 c -1.249,0 -1.827,-0.6137 -1.801,-1.1932 -0.026,-0.5455 0.518,-1.2273 1.699,-1.2273 h 1.767 z m -17.95,1.159 v -7.0909 h -4.418 v 13.0909 h 4.418 l 3.636,-7.125 v 7.125 h 4.417 V 27.9095 h -4.417 z m -12.639,6.2387 c 3.866,0 6.236,-2.2245 6.287,-5.6932 h -4.35 c -0.102,1.3722 -0.841,2.1136 -1.869,2.1136 -1.231,0 -2.038,-1.0568 -2.038,-3.2045 0,-2.1477 0.807,-3.2046 2.038,-3.2046 1.037,0 1.742,0.7415 1.869,2.1137 h 4.35 c -0.026,-3.4091 -2.447,-5.625 -6.287,-5.625 -4.247,0 -6.762,2.7273 -6.762,6.75 0,4.0227 2.515,6.75 6.762,6.75 z m -14.507,0 c 3.865,0 6.235,-2.2245 6.286,-5.6932 h -4.349 c -0.102,1.3722 -0.841,2.1136 -1.869,2.1136 -1.232,0 -2.039,-1.0568 -2.039,-3.2045 0,-2.1477 0.807,-3.2046 2.039,-3.2046 1.036,0 1.742,0.7415 1.869,2.1137 h 4.349 c -0.025,-3.4091 -2.446,-5.625 -6.286,-5.625 -4.247,0 -6.762,2.7273 -6.762,6.75 0,4.0227 2.515,6.75 6.762,6.75 z m -14.951,0 c 4.247,0 6.762,-2.7273 6.762,-6.75 0,-4.0227 -2.515,-6.75 -6.762,-6.75 -4.248,0 -6.762,2.7273 -6.762,6.75 0,4.0227 2.514,6.75 6.762,6.75 z m 0.034,-3.4773 c -1.257,0 -2.005,-1.2528 -2.005,-3.3068 0,-2.054 0.748,-3.3068 2.005,-3.3068 1.189,0 1.937,1.2528 1.937,3.3068 0,2.054 -0.748,3.3068 -1.937,3.3068 z m -21.8066,3.2386 h 4.7232 v -5.1818 h 2.6164 c 3.967,0 6.626,-2.3437 6.626,-6.1022 0,-3.716 -2.591,-6.1705 -6.4561,-6.1705 h -7.5095 z m 4.7232,-8.8636 V 27.33 h 1.665 c 1.6565,0 2.6504,0.8864 2.6504,2.3864 0,1.4914 -0.9939,2.4204 -2.6504,2.4204 z" />
  <animateTransform
     href="#russiaMap"
     id="animMap1"
     attributeName="transform"
     type="translate"
     from="0"
     to="5"
     dur="2s"
     repeatCount="1"
     begin="5s; animMap2.end"
     keyTimes="0; 1"
     calcMode="splines"
     keySplines=".27,.66,.73,.99" />
  <animateTransform
     href="#russiaMap"
     id="animMap2"
     attributeName="transform"
     type="translate"
     from="5"
     to="0"
     dur="2s"
     repeatCount="1"
     begin="animMap1.end"
     keyTimes="0; 1"
     calcMode="splines"
     keySplines=".27,.66,.73,.99" />
  <animateTransform
     href="#russia"
     id="animMap1"
     attributeName="transform"
     type="translate"
     from="0"
     to="-5"
     dur="2s"
     repeatCount="1"
     begin="5s; animMap2.end"
     keyTimes="0; 1"
     calcMode="splines"
     keySplines=".27,.66,.73,.99" />
  <animateTransform
     href="#russia"
     id="animMap2"
     attributeName="transform"
     type="translate"
     from="-5"
     to="0"
     dur="2s"
     repeatCount="1"
     begin="animMap1.end"
     keyTimes="0; 1"
     calcMode="splines"
     keySplines=".27,.66,.73,.99" />
</svg>
