<?xml version="1.0" encoding="UTF-8" standalone="no"?>
<svg
   width="938"
   height="227"
   viewBox="0 0 938 227"
   fill="none"
   version="1.1"
   id="svg238"
   sodipodi:docname="Group 41.svg"
   inkscape:version="1.2.2 (732a01da63, 2022-12-09)"
   xmlns:inkscape="http://www.inkscape.org/namespaces/inkscape"
   xmlns:sodipodi="http://sodipodi.sourceforge.net/DTD/sodipodi-0.dtd"
   xmlns="http://www.w3.org/2000/svg"
   xmlns:svg="http://www.w3.org/2000/svg">

  <defs id="defs242" />

  <sodipodi:namedview
     id="namedview240"
     pagecolor="#ffffff"
     bordercolor="#000000"
     borderopacity="0.25"
     inkscape:showpageshadow="2"
     inkscape:pageopacity="0.0"
     inkscape:pagecheckerboard="0"
     inkscape:deskcolor="#d1d1d1"
     showgrid="false"
     inkscape:zoom="5.7484008"
     inkscape:cx="873.72126"
     inkscape:cy="138.64726"
     inkscape:window-width="1920"
     inkscape:window-height="1017"
     inkscape:window-x="1272"
     inkscape:window-y="-8"
     inkscape:window-maximized="1"
     inkscape:current-layer="svg238" />
  <path
     d="m 19.106004,114.05294 c 2.8819,-2.516 5.335396,-5.26794 8.215596,-7.75094 17.8749,-15.4119 35.4336,-30.5512 49.1415,-49.9707 0.3652,-0.5174 0.7674,-1.0948 1.2019,-1.7187 1.9299,-2.7711 4.4991,-6.4602 7.3119,-9.8846 1.7244,-2.0992 3.5493,-4.1105 5.3862,-5.7593 1.8318,-1.6443 3.7026,-2.953 5.5207,-3.6141 4.8982,-1.781 9.2652,-1.9076 13.2032,-0.8274 3.931,1.0782 7.399,3.3488 10.52,6.3046 5.794,5.4852 10.474,13.4104 14.77,20.6831 0.321,0.5442 0.64,1.0847 0.958,1.6203 4.214,7.1115 6.897,10.6949 10.025,13.562 2.281,2.0904 4.795,3.8016 8.338,6.2125 1.351,0.9192 2.851,1.94 4.544,3.1223 23.027,16.075 37.663,41.162 50.771,65.297 0.69,1.27 1.417,2.587 2.166,3.944 2.688,4.87 5.658,10.251 8.193,15.786 3.24,7.078 5.795,14.461 6.144,21.429 0.11,2.212 0.432,3.682 0.876,4.588 0.432,0.881 0.941,1.164 1.467,1.176 0.591,0.012 1.353,-0.312 2.263,-0.999 0.896,-0.675 1.865,-1.648 2.86,-2.806 3.878,-4.516 7.908,-11.576 9.081,-13.63 l 0.09,-0.159 c 12.887,-22.552 30.484,-36.423 49.82,-51.666 2.641,-2.081 5.314,-4.189 8.012,-6.348 2.216,-1.772 7.71,-5.999 12.875,-8.06 2.569,-1.026 5.166,-1.561 7.261,-0.873 2.168,0.712 3.632,2.669 4.048,6.203 0.146,1.245 1.08,2.507 2.626,3.792 1.532,1.274 3.576,2.499 5.775,3.689 1.219,0.66 2.448,1.29 3.658,1.91 1,0.512 1.986,1.018 2.943,1.528 2.068,1.103 3.928,2.192 5.145,3.274 1.509,1.341 3.034,2.527 4.537,3.681 0.162,0.124 0.324,0.248 0.485,0.372 1.334,1.022 2.65,2.03 3.902,3.098 2.817,2.404 5.34,5.136 7.158,9.136 2.04,4.487 3.118,8.254 3.976,11.254 l 0.057,0.198 c 0.435,1.52 0.813,2.821 1.235,3.925 0.421,1.102 0.876,1.974 1.45,2.647 1.113,1.302 2.772,1.963 5.919,1.825 3.164,-0.139 7.723,-1.082 14.506,-2.877 l 0.53,-0.14 c 8.597,-2.276 17.105,-4.527 25.371,-7.742 0.568,-0.221 1.116,-0.215 1.619,0.002 0.486,0.211 0.885,0.6 1.214,1.065 0.655,0.924 1.136,2.291 1.511,3.732 0.379,1.454 0.663,3.043 0.895,4.446 0.054,0.328 0.106,0.645 0.155,0.947 0.163,1.004 0.299,1.846 0.432,2.411 0.902,3.832 1.161,7.334 1.329,10.425 0.021,0.39 0.041,0.774 0.061,1.149 0.136,2.618 0.253,4.88 0.71,6.805 0.515,2.172 1.451,3.858 3.309,5.079 1.885,1.238 4.776,2.035 9.284,2.272 3.302,0.174 5.551,0.758 7.103,1.715 1.575,0.972 2.381,2.297 2.857,3.827 0.363,1.167 0.541,2.487 0.726,3.858 0.052,0.384 0.104,0.772 0.161,1.162 0.265,1.808 0.637,3.725 1.512,5.693 1.282,2.883 4.63,4.538 9.373,5.466 4.714,0.922 10.621,1.092 16.761,1.168 0.863,0.011 1.731,0.019 2.6,0.028 5.293,0.054 10.645,0.108 15.39,0.588 5.503,0.558 10.314,1.697 13.289,4.176 0.093,0.078 0.122,0.059 0.122,0.058 0.036,-0.008 0.137,-0.056 0.292,-0.247 0.308,-0.38 0.648,-1.099 0.996,-2.129 0.687,-2.035 1.333,-5.057 1.89,-8.342 1.112,-6.568 1.844,-14.056 1.844,-16.522 0,-10.304 4.334,-20.044 10.422,-27.872 4.06,-5.22 4.164,-11.237 3.969,-17.526 -0.015,-0.47 -0.031,-0.942 -0.047,-1.415 -0.201,-5.804 -0.409,-11.801 2.479,-17.257 1.05,-1.982 2.644,-3.169 4.624,-3.698 1.96,-0.524 4.272,-0.398 6.782,0.175 5.02,1.146 11.004,4.123 16.935,7.675 5.942,3.559 11.871,7.721 16.787,11.27 1.291,0.933 2.51,1.82 3.639,2.643 3.189,2.324 5.667,4.129 7.06,4.952 4.472,2.639 8.559,6.061 12.568,9.418 0.53,0.443 1.058,0.885 1.586,1.324 4.539,3.779 9.034,7.333 14.006,9.543 3.403,1.513 5.464,2.052 6.81,2.064 0.659,0.005 1.135,-0.117 1.512,-0.306 0.38,-0.19 0.691,-0.464 1.004,-0.811 0.157,-0.174 0.31,-0.362 0.474,-0.565 0.162,-0.201 0.334,-0.417 0.519,-0.633 0.372,-0.436 0.809,-0.889 1.384,-1.295 1.161,-0.821 2.812,-1.399 5.503,-1.399 5.683,0 9.833,1.148 13.764,2.739 1.616,0.654 3.198,1.384 4.827,2.136 0.344,0.158 0.689,0.318 1.038,0.478 2.005,0.92 4.114,1.86 6.498,2.738 2.813,1.036 6.484,0.469 10.699,-1.127 4.197,-1.588 8.828,-4.154 13.503,-6.972 2.123,-1.28 4.268,-2.62 6.382,-3.941 2.509,-1.568 4.973,-3.107 7.301,-4.484 4.303,-2.545 8.275,-4.616 11.471,-5.415 1.96,-0.49 4.561,-0.895 7.167,-1.036 2.597,-0.142 5.245,-0.024 7.277,0.556 0.313,0.09 0.605,0.27 0.869,0.477 0.267,0.209 0.533,0.466 0.791,0.738 0.256,0.269 0.515,0.564 0.77,0.854 l 0.009,0.01 c 0.26,0.296 0.516,0.586 0.773,0.857 0.526,0.554 0.996,0.959 1.414,1.128 0.198,0.08 0.362,0.098 0.505,0.071 0.142,-0.027 0.31,-0.106 0.504,-0.3 2.4,-2.4 4.365,-5.285 6.229,-8.331 0.667,-1.091 1.325,-2.208 1.985,-3.329 1.169,-1.987 2.347,-3.987 3.603,-5.882 3.955,-5.965 8.83,-11.115 17.316,-12.421 5.419,-0.833 10.692,1.773 14.739,5.807 3.782,3.771 6.559,8.852 7.438,13.745 0.335,-0.392 0.777,-0.92 1.306,-1.551 l 0.007,-0.008 c 1.239,-1.479 2.941,-3.51 4.8,-5.631 1.861,-2.124 3.885,-4.344 5.763,-6.194 1.863,-1.836 3.63,-3.355 4.971,-4.025 4.171,-2.085 7.932,-1.778 11.285,-0.602 2.378,0.834 4.591,2.125 6.583,3.288 0.776,0.453 1.519,0.886 2.224,1.265 2.6,1.396 4.617,2.019 6.355,0.915 0.892,-0.567 1.776,-1.625 2.631,-3.429 0.853,-1.8 1.658,-4.304 2.415,-7.708 3.251,-14.632 22.188,-23.089 35.772,-12.701 0.587,0.448 1.339,1.267 2.199,2.309 0.869,1.052 1.876,2.367 2.976,3.838 0.73,0.975 1.5,2.018 2.3,3.101 1.619,2.192 3.357,4.547 5.12,6.827 2.634,3.406 5.296,6.612 7.648,8.815 1.178,1.102 2.256,1.932 3.195,2.414 0.95,0.487 1.664,0.572 2.183,0.358 0.554,-0.228 1.091,-0.451 1.613,-0.668 6.618,-2.744 11.18194,-3.91914 19.14994,-3.91914"
     fill="none"
     stroke="white"
     stroke-width="2"
     id="pathLine1"
     sodipodi:nodetypes="cccccccccccccccscccccccccccscccccccccccccccccscccccsccccccsccccccccccccscccccscccccccccscccssccsccccscccccccscscccccccccccssccsccccscccccc" />
  <path
     d="m 19.106004,114.05294 c 2.8819,-2.516 5.335396,-5.26794 8.215596,-7.75094 17.8749,-15.4119 35.4336,-30.5512 49.1415,-49.9707 0.3652,-0.5174 0.7674,-1.0948 1.2019,-1.7187 1.9299,-2.7711 4.4991,-6.4602 7.3119,-9.8846 1.7244,-2.0992 3.5493,-4.1105 5.3862,-5.7593 1.8318,-1.6443 3.7026,-2.953 5.5207,-3.6141 4.8982,-1.781 9.2652,-1.9076 13.2032,-0.8274 3.931,1.0782 7.399,3.3488 10.52,6.3046 5.794,5.4852 10.474,13.4104 14.77,20.6831 0.321,0.5442 0.64,1.0847 0.958,1.6203 4.214,7.1115 6.897,10.6949 10.025,13.562 2.281,2.0904 4.795,3.8016 8.338,6.2125 1.351,0.9192 2.851,1.94 4.544,3.1223 23.027,16.075 37.663,41.162 50.771,65.297 0.69,1.27 1.417,2.587 2.166,3.944 2.688,4.87 5.658,10.251 8.193,15.786 3.24,7.078 5.795,14.461 6.144,21.429 0.11,2.212 0.432,3.682 0.876,4.588 0.432,0.881 0.941,1.164 1.467,1.176 0.591,0.012 1.353,-0.312 2.263,-0.999 0.896,-0.675 1.865,-1.648 2.86,-2.806 3.878,-4.516 7.908,-11.576 9.081,-13.63 l 0.09,-0.159 c 12.887,-22.552 30.484,-36.423 49.82,-51.666 2.641,-2.081 5.314,-4.189 8.012,-6.348 2.216,-1.772 7.71,-5.999 12.875,-8.06 2.569,-1.026 5.166,-1.561 7.261,-0.873 2.168,0.712 3.632,2.669 4.048,6.203 0.146,1.245 1.08,2.507 2.626,3.792 1.532,1.274 3.576,2.499 5.775,3.689 1.219,0.66 2.448,1.29 3.658,1.91 1,0.512 1.986,1.018 2.943,1.528 2.068,1.103 3.928,2.192 5.145,3.274 1.509,1.341 3.034,2.527 4.537,3.681 0.162,0.124 0.324,0.248 0.485,0.372 1.334,1.022 2.65,2.03 3.902,3.098 2.817,2.404 5.34,5.136 7.158,9.136 2.04,4.487 3.118,8.254 3.976,11.254 l 0.057,0.198 c 0.435,1.52 0.813,2.821 1.235,3.925 0.421,1.102 0.876,1.974 1.45,2.647 1.113,1.302 2.772,1.963 5.919,1.825 3.164,-0.139 7.723,-1.082 14.506,-2.877 l 0.53,-0.14 c 8.597,-2.276 17.105,-4.527 25.371,-7.742 0.568,-0.221 1.116,-0.215 1.619,0.002 0.486,0.211 0.885,0.6 1.214,1.065 0.655,0.924 1.136,2.291 1.511,3.732 0.379,1.454 0.663,3.043 0.895,4.446 0.054,0.328 0.106,0.645 0.155,0.947 0.163,1.004 0.299,1.846 0.432,2.411 0.902,3.832 1.161,7.334 1.329,10.425 0.021,0.39 0.041,0.774 0.061,1.149 0.136,2.618 0.253,4.88 0.71,6.805 0.515,2.172 1.451,3.858 3.309,5.079 1.885,1.238 4.776,2.035 9.284,2.272 3.302,0.174 5.551,0.758 7.103,1.715 1.575,0.972 2.381,2.297 2.857,3.827 0.363,1.167 0.541,2.487 0.726,3.858 0.052,0.384 0.104,0.772 0.161,1.162 0.265,1.808 0.637,3.725 1.512,5.693 1.282,2.883 4.63,4.538 9.373,5.466 4.714,0.922 10.621,1.092 16.761,1.168 0.863,0.011 1.731,0.019 2.6,0.028 5.293,0.054 10.645,0.108 15.39,0.588 5.503,0.558 10.314,1.697 13.289,4.176 0.093,0.078 0.122,0.059 0.122,0.058 0.036,-0.008 0.137,-0.056 0.292,-0.247 0.308,-0.38 0.648,-1.099 0.996,-2.129 0.687,-2.035 1.333,-5.057 1.89,-8.342 1.112,-6.568 1.844,-14.056 1.844,-16.522 0,-10.304 4.334,-20.044 10.422,-27.872 4.06,-5.22 4.164,-11.237 3.969,-17.526 -0.015,-0.47 -0.031,-0.942 -0.047,-1.415 -0.201,-5.804 -0.409,-11.801 2.479,-17.257 1.05,-1.982 2.644,-3.169 4.624,-3.698 1.96,-0.524 4.272,-0.398 6.782,0.175 5.02,1.146 11.004,4.123 16.935,7.675 5.942,3.559 11.871,7.721 16.787,11.27 1.291,0.933 2.51,1.82 3.639,2.643 3.189,2.324 5.667,4.129 7.06,4.952 4.472,2.639 8.559,6.061 12.568,9.418 0.53,0.443 1.058,0.885 1.586,1.324 4.539,3.779 9.034,7.333 14.006,9.543 3.403,1.513 5.464,2.052 6.81,2.064 0.659,0.005 1.135,-0.117 1.512,-0.306 0.38,-0.19 0.691,-0.464 1.004,-0.811 0.157,-0.174 0.31,-0.362 0.474,-0.565 0.162,-0.201 0.334,-0.417 0.519,-0.633 0.372,-0.436 0.809,-0.889 1.384,-1.295 1.161,-0.821 2.812,-1.399 5.503,-1.399 5.683,0 9.833,1.148 13.764,2.739 1.616,0.654 3.198,1.384 4.827,2.136 0.344,0.158 0.689,0.318 1.038,0.478 2.005,0.92 4.114,1.86 6.498,2.738 2.813,1.036 6.484,0.469 10.699,-1.127 4.197,-1.588 8.828,-4.154 13.503,-6.972 2.123,-1.28 4.268,-2.62 6.382,-3.941 2.509,-1.568 4.973,-3.107 7.301,-4.484 4.303,-2.545 8.275,-4.616 11.471,-5.415 1.96,-0.49 4.561,-0.895 7.167,-1.036 2.597,-0.142 5.245,-0.024 7.277,0.556 0.313,0.09 0.605,0.27 0.869,0.477 0.267,0.209 0.533,0.466 0.791,0.738 0.256,0.269 0.515,0.564 0.77,0.854 l 0.009,0.01 c 0.26,0.296 0.516,0.586 0.773,0.857 0.526,0.554 0.996,0.959 1.414,1.128 0.198,0.08 0.362,0.098 0.505,0.071 0.142,-0.027 0.31,-0.106 0.504,-0.3 2.4,-2.4 4.365,-5.285 6.229,-8.331 0.667,-1.091 1.325,-2.208 1.985,-3.329 1.169,-1.987 2.347,-3.987 3.603,-5.882 3.955,-5.965 8.83,-11.115 17.316,-12.421 5.419,-0.833 10.692,1.773 14.739,5.807 3.782,3.771 6.559,8.852 7.438,13.745 0.335,-0.392 0.777,-0.92 1.306,-1.551 l 0.007,-0.008 c 1.239,-1.479 2.941,-3.51 4.8,-5.631 1.861,-2.124 3.885,-4.344 5.763,-6.194 1.863,-1.836 3.63,-3.355 4.971,-4.025 4.171,-2.085 7.932,-1.778 11.285,-0.602 2.378,0.834 4.591,2.125 6.583,3.288 0.776,0.453 1.519,0.886 2.224,1.265 2.6,1.396 4.617,2.019 6.355,0.915 0.892,-0.567 1.776,-1.625 2.631,-3.429 0.853,-1.8 1.658,-4.304 2.415,-7.708 3.251,-14.632 22.188,-23.089 35.772,-12.701 0.587,0.448 1.339,1.267 2.199,2.309 0.869,1.052 1.876,2.367 2.976,3.838 0.73,0.975 1.5,2.018 2.3,3.101 1.619,2.192 3.357,4.547 5.12,6.827 2.634,3.406 5.296,6.612 7.648,8.815 1.178,1.102 2.256,1.932 3.195,2.414 0.95,0.487 1.664,0.572 2.183,0.358 0.554,-0.228 1.091,-0.451 1.613,-0.668 6.618,-2.744 11.18194,-3.91914 19.14994,-3.91914"
     fill="none"
     stroke="green"
     stroke-width="2"
     stroke-dasharray="1282"
     stroke-dashoffset="1282"
     id="pathLine2"
     sodipodi:nodetypes="cccccccccccccccscccccccccccscccccccccccccccccscccccsccccccsccccccccccccscccccscccccccccscccssccsccccscccccccscscccccccccccssccsccccscccccc" />
  <path
     d="m 19.106004,114.05294 c 2.8819,-2.516 5.335396,-5.26794 8.215596,-7.75094 17.8749,-15.4119 35.4336,-30.5512 49.1415,-49.9707 0.3652,-0.5174 0.7674,-1.0948 1.2019,-1.7187 1.9299,-2.7711 4.4991,-6.4602 7.3119,-9.8846 1.7244,-2.0992 3.5493,-4.1105 5.3862,-5.7593 1.8318,-1.6443 3.7026,-2.953 5.5207,-3.6141 4.8982,-1.781 9.2652,-1.9076 13.2032,-0.8274 3.931,1.0782 7.399,3.3488 10.52,6.3046 5.794,5.4852 10.474,13.4104 14.77,20.6831 0.321,0.5442 0.64,1.0847 0.958,1.6203 4.214,7.1115 6.897,10.6949 10.025,13.562 2.281,2.0904 4.795,3.8016 8.338,6.2125 1.351,0.9192 2.851,1.94 4.544,3.1223 23.027,16.075 37.663,41.162 50.771,65.297 0.69,1.27 1.417,2.587 2.166,3.944 2.688,4.87 5.658,10.251 8.193,15.786 3.24,7.078 5.795,14.461 6.144,21.429 0.11,2.212 0.432,3.682 0.876,4.588 0.432,0.881 0.941,1.164 1.467,1.176 0.591,0.012 1.353,-0.312 2.263,-0.999 0.896,-0.675 1.865,-1.648 2.86,-2.806 3.878,-4.516 7.908,-11.576 9.081,-13.63 l 0.09,-0.159 c 12.887,-22.552 30.484,-36.423 49.82,-51.666 2.641,-2.081 5.314,-4.189 8.012,-6.348 2.216,-1.772 7.71,-5.999 12.875,-8.06 2.569,-1.026 5.166,-1.561 7.261,-0.873 2.168,0.712 3.632,2.669 4.048,6.203 0.146,1.245 1.08,2.507 2.626,3.792 1.532,1.274 3.576,2.499 5.775,3.689 1.219,0.66 2.448,1.29 3.658,1.91 1,0.512 1.986,1.018 2.943,1.528 2.068,1.103 3.928,2.192 5.145,3.274 1.509,1.341 3.034,2.527 4.537,3.681 0.162,0.124 0.324,0.248 0.485,0.372 1.334,1.022 2.65,2.03 3.902,3.098 2.817,2.404 5.34,5.136 7.158,9.136 2.04,4.487 3.118,8.254 3.976,11.254 l 0.057,0.198 c 0.435,1.52 0.813,2.821 1.235,3.925 0.421,1.102 0.876,1.974 1.45,2.647 1.113,1.302 2.772,1.963 5.919,1.825 3.164,-0.139 7.723,-1.082 14.506,-2.877 l 0.53,-0.14 c 8.597,-2.276 17.105,-4.527 25.371,-7.742 0.568,-0.221 1.116,-0.215 1.619,0.002 0.486,0.211 0.885,0.6 1.214,1.065 0.655,0.924 1.136,2.291 1.511,3.732 0.379,1.454 0.663,3.043 0.895,4.446 0.054,0.328 0.106,0.645 0.155,0.947 0.163,1.004 0.299,1.846 0.432,2.411 0.902,3.832 1.161,7.334 1.329,10.425 0.021,0.39 0.041,0.774 0.061,1.149 0.136,2.618 0.253,4.88 0.71,6.805 0.515,2.172 1.451,3.858 3.309,5.079 1.885,1.238 4.776,2.035 9.284,2.272 3.302,0.174 5.551,0.758 7.103,1.715 1.575,0.972 2.381,2.297 2.857,3.827 0.363,1.167 0.541,2.487 0.726,3.858 0.052,0.384 0.104,0.772 0.161,1.162 0.265,1.808 0.637,3.725 1.512,5.693 1.282,2.883 4.63,4.538 9.373,5.466 4.714,0.922 10.621,1.092 16.761,1.168 0.863,0.011 1.731,0.019 2.6,0.028 5.293,0.054 10.645,0.108 15.39,0.588 5.503,0.558 10.314,1.697 13.289,4.176 0.093,0.078 0.122,0.059 0.122,0.058 0.036,-0.008 0.137,-0.056 0.292,-0.247 0.308,-0.38 0.648,-1.099 0.996,-2.129 0.687,-2.035 1.333,-5.057 1.89,-8.342 1.112,-6.568 1.844,-14.056 1.844,-16.522 0,-10.304 4.334,-20.044 10.422,-27.872 4.06,-5.22 4.164,-11.237 3.969,-17.526 -0.015,-0.47 -0.031,-0.942 -0.047,-1.415 -0.201,-5.804 -0.409,-11.801 2.479,-17.257 1.05,-1.982 2.644,-3.169 4.624,-3.698 1.96,-0.524 4.272,-0.398 6.782,0.175 5.02,1.146 11.004,4.123 16.935,7.675 5.942,3.559 11.871,7.721 16.787,11.27 1.291,0.933 2.51,1.82 3.639,2.643 3.189,2.324 5.667,4.129 7.06,4.952 4.472,2.639 8.559,6.061 12.568,9.418 0.53,0.443 1.058,0.885 1.586,1.324 4.539,3.779 9.034,7.333 14.006,9.543 3.403,1.513 5.464,2.052 6.81,2.064 0.659,0.005 1.135,-0.117 1.512,-0.306 0.38,-0.19 0.691,-0.464 1.004,-0.811 0.157,-0.174 0.31,-0.362 0.474,-0.565 0.162,-0.201 0.334,-0.417 0.519,-0.633 0.372,-0.436 0.809,-0.889 1.384,-1.295 1.161,-0.821 2.812,-1.399 5.503,-1.399 5.683,0 9.833,1.148 13.764,2.739 1.616,0.654 3.198,1.384 4.827,2.136 0.344,0.158 0.689,0.318 1.038,0.478 2.005,0.92 4.114,1.86 6.498,2.738 2.813,1.036 6.484,0.469 10.699,-1.127 4.197,-1.588 8.828,-4.154 13.503,-6.972 2.123,-1.28 4.268,-2.62 6.382,-3.941 2.509,-1.568 4.973,-3.107 7.301,-4.484 4.303,-2.545 8.275,-4.616 11.471,-5.415 1.96,-0.49 4.561,-0.895 7.167,-1.036 2.597,-0.142 5.245,-0.024 7.277,0.556 0.313,0.09 0.605,0.27 0.869,0.477 0.267,0.209 0.533,0.466 0.791,0.738 0.256,0.269 0.515,0.564 0.77,0.854 l 0.009,0.01 c 0.26,0.296 0.516,0.586 0.773,0.857 0.526,0.554 0.996,0.959 1.414,1.128 0.198,0.08 0.362,0.098 0.505,0.071 0.142,-0.027 0.31,-0.106 0.504,-0.3 2.4,-2.4 4.365,-5.285 6.229,-8.331 0.667,-1.091 1.325,-2.208 1.985,-3.329 1.169,-1.987 2.347,-3.987 3.603,-5.882 3.955,-5.965 8.83,-11.115 17.316,-12.421 5.419,-0.833 10.692,1.773 14.739,5.807 3.782,3.771 6.559,8.852 7.438,13.745 0.335,-0.392 0.777,-0.92 1.306,-1.551 l 0.007,-0.008 c 1.239,-1.479 2.941,-3.51 4.8,-5.631 1.861,-2.124 3.885,-4.344 5.763,-6.194 1.863,-1.836 3.63,-3.355 4.971,-4.025 4.171,-2.085 7.932,-1.778 11.285,-0.602 2.378,0.834 4.591,2.125 6.583,3.288 0.776,0.453 1.519,0.886 2.224,1.265 2.6,1.396 4.617,2.019 6.355,0.915 0.892,-0.567 1.776,-1.625 2.631,-3.429 0.853,-1.8 1.658,-4.304 2.415,-7.708 3.251,-14.632 22.188,-23.089 35.772,-12.701 0.587,0.448 1.339,1.267 2.199,2.309 0.869,1.052 1.876,2.367 2.976,3.838 0.73,0.975 1.5,2.018 2.3,3.101 1.619,2.192 3.357,4.547 5.12,6.827 2.634,3.406 5.296,6.612 7.648,8.815 1.178,1.102 2.256,1.932 3.195,2.414 0.95,0.487 1.664,0.572 2.183,0.358 0.554,-0.228 1.091,-0.451 1.613,-0.668 6.618,-2.744 11.18194,-3.91914 19.14994,-3.91914"
     fill="none"
     stroke="white"
     stroke-width="2"
     stroke-dasharray="1282"
     stroke-dashoffset="1282"
     id="pathLine3"
     sodipodi:nodetypes="cccccccccccccccscccccccccccscccccccccccccccccscccccsccccccsccccccccccccscccccscccccccccscccssccsccccscccccccscscccccccccccssccsccccscccccc" />

  <path
     id="novgorod"
     opacity="0"
     fill="white"
     d="m 128.373,23.758 h 1.052 v -1.7578 h 4.882 v 1.7471 h 1.051 v -2.6775 h -0.823 v -6.3423 h -4.485 l -0.171,3.0717 c -0.11,2.0241 -0.54,2.8586 -1.026,3.2706 h -0.48 z m 1.772,-2.6882 c 0.416,-0.6641 0.696,-1.733 0.785,-3.2706 l 0.114,-2.1271 h 2.439 v 5.3977 z m -4.089,-2.706 c 0,-2.326 -1.392,-3.7358 -3.274,-3.7358 -1.89,0 -3.278,1.4098 -3.278,3.7358 0,2.3225 1.388,3.7358 3.278,3.7358 1.882,0 3.274,-1.4098 3.274,-3.7358 z m -1.087,0 c 0,1.772 -0.937,2.7344 -2.187,2.7344 -1.254,0 -2.188,-0.9624 -2.188,-2.7344 0,-1.772 0.934,-2.7344 2.188,-2.7344 1.25,0 2.187,0.9624 2.187,2.7344 z m -13.127,3.6364 h 1.097 v -2.5568 h 1.492 c 1.686,0 2.521,-1.0192 2.521,-2.3615 0,-1.3388 -0.828,-2.3544 -2.518,-2.3544 h -2.592 z m 1.097,-3.4872 v -2.8445 h 1.378 c 1.087,0 1.53,0.5895 1.53,1.4134 0,0.8238 -0.443,1.4311 -1.516,1.4311 z m -3.965,-0.1492 c 0,-2.326 -1.392,-3.7358 -3.274,-3.7358 -1.89,0 -3.278,1.4098 -3.278,3.7358 0,2.3225 1.388,3.7358 3.278,3.7358 1.882,0 3.274,-1.4098 3.274,-3.7358 z m -1.087,0 c 0,1.772 -0.937,2.7344 -2.187,2.7344 -1.254,0 -2.188,-0.9624 -2.188,-2.7344 0,-1.772 0.934,-2.7344 2.188,-2.7344 1.25,0 2.187,0.9624 2.187,2.7344 z m -7.665,-3.6363 h -4.5345 v 7.2727 h 1.0973 v -6.3281 h 3.4372 z m -12.5775,7.2727 h 2.7877 c 1.6903,0 2.4538,-0.8416 2.4538,-1.9567 0,-1.1257 -0.7883,-1.7614 -1.5092,-1.8004 v -0.071 c 0.6676,-0.1705 1.2251,-0.625 1.2251,-1.5341 0,-1.076 -0.7457,-1.9105 -2.294,-1.9105 h -2.6634 z m 1.0973,-0.9411 v -2.3295 h 1.6229 c 0.8807,0 1.4311,0.5682 1.4311,1.2606 0,0.6108 -0.4155,1.0689 -1.4702,1.0689 z m 0,-3.1853 v -2.2124 h 1.4986 c 0.87,0 1.2855,0.4581 1.2855,1.0618 0,0.7031 -0.5753,1.1506 -1.3139,1.1506 z m -3.9653,0.49 c 0,-2.326 -1.3921,-3.7358 -3.2742,-3.7358 -1.8892,0 -3.2777,1.4098 -3.2777,3.7358 0,2.3225 1.3885,3.7358 3.2777,3.7358 1.8821,0 3.2742,-1.4098 3.2742,-3.7358 z m -1.0867,0 c 0,1.772 -0.9375,2.7344 -2.1875,2.7344 -1.2535,0 -2.1875,-0.9624 -2.1875,-2.7344 0,-1.772 0.934,-2.7344 2.1875,-2.7344 1.25,0 2.1875,0.9624 2.1875,2.7344 z m -14.1527,3.6364 h 1.0973 V 18.829 h 3.6257 v 3.1712 H 75.361 V 14.7275 H 74.2601 V 17.888 H 70.6344 V 14.7275 H 69.5371 Z M 124.541,2.72745 v 7.27275 h 1.009 l 3.696,-5.33383 h 0.068 v 5.33383 h 1.097 V 2.72745 h -1.016 l -3.7,5.34091 h -0.067 V 2.72745 Z m 3.633,-1.846591 c 0,0.358661 -0.199,0.674721 -0.696,0.674721 -0.504,0 -0.693,-0.31961 -0.693,-0.674721 h -0.87 c 0,0.799011 0.608,1.349431 1.563,1.349431 0.962,0 1.569,-0.55042 1.569,-1.349431 z M 115.57,2.72745 v 7.27275 h 1.009 l 3.697,-5.33383 h 0.067 v 5.33383 h 1.097 V 2.72745 h -1.015 l -3.701,5.34091 h -0.067 V 2.72745 Z m -3.95,7.27275 h 1.339 l -3.001,-3.9844 3.019,-3.28835 h -1.361 l -2.83,3.07173 H 108.41 V 2.72745 h -1.098 v 7.27275 h 1.098 V 6.74023 h 0.753 z M 98.3418,2.72745 v 7.27275 h 1.0085 l 3.6967,-5.33383 h 0.068 v 5.33383 h 1.097 V 2.72745 h -1.016 L 99.4959,8.06836 H 99.4284 V 2.72745 Z m -9.2379,7.27275 h 0.3125 c 1.6548,0 2.0525,-1.22871 2.1484,-3.56536 l 0.1136,-2.77699 h 2.4823 v 6.34235 h 1.0831 V 2.72745 H 90.6451 L 90.5208,6.14364 C 90.4426,8.24947 90.187,9.02006 89.3169,9.04137 l -0.213,0.0071 z m -6.975,0 h 4.6023 V 9.05558 h -3.505 V 6.82901 h 3.2244 V 5.88796 H 83.2262 V 3.67205 h 3.4624 v -0.9446 h -4.5597 z m -8.043,0 h 2.7877 c 1.6903,0 2.4538,-0.84164 2.4538,-1.9567 0,-1.12571 -0.7883,-1.76136 -1.5092,-1.80042 V 6.17205 c 0.6676,-0.17045 1.2251,-0.625 1.2251,-1.53409 0,-1.07599 -0.7457,-1.91051 -2.294,-1.91051 H 74.0859 Z M 75.1832,9.05913 V 6.72958 h 1.6229 c 0.8807,0 1.4311,0.56818 1.4311,1.26065 0,0.6108 -0.4155,1.0689 -1.4702,1.0689 z m 0,-3.18537 V 3.6614 h 1.4986 c 0.87,0 1.2855,0.4581 1.2855,1.06179 0,0.70312 -0.5753,1.15057 -1.3139,1.15057 z" />
  <path
     id="pskov"
     opacity="0"
     fill="white"
     d="m 34.9933,133 h 2.7876 c 1.6904,0 2.4539,-0.842 2.4539,-1.957 0,-1.125 -0.7884,-1.761 -1.5093,-1.8 v -0.071 c 0.6677,-0.17 1.2252,-0.625 1.2252,-1.534 0,-1.076 -0.7458,-1.911 -2.2941,-1.911 h -2.6633 z m 1.0973,-0.941 v -2.33 h 1.6229 c 0.8806,0 1.4311,0.569 1.4311,1.261 0,0.611 -0.4155,1.069 -1.4702,1.069 z m 0,-3.185 v -2.213 h 1.4986 c 0.87,0 1.2855,0.458 1.2855,1.062 0,0.703 -0.5753,1.151 -1.3139,1.151 z m -3.9654,0.49 c 0,-2.326 -1.392,-3.736 -3.2741,-3.736 -1.8892,0 -3.2777,1.41 -3.2777,3.736 0,2.322 1.3885,3.736 3.2777,3.736 1.8821,0 3.2741,-1.41 3.2741,-3.736 z m -1.0866,0 c 0,1.772 -0.9375,2.734 -2.1875,2.734 -1.2536,0 -2.1875,-0.962 -2.1875,-2.734 0,-1.772 0.9339,-2.735 2.1875,-2.735 1.25,0 2.1875,0.963 2.1875,2.735 z M 22.2188,133 h 1.3388 l -3.0007,-3.984 3.0184,-3.289 h -1.3601 l -2.8302,3.072 h -0.3764 v -3.072 H 17.9113 V 133 h 1.0973 v -3.26 h 0.7528 z m -7.1206,-4.908 c -0.2485,-1.555 -1.4666,-2.464 -3.0042,-2.464 -1.8821,0 -3.27063,1.41 -3.27063,3.736 0,2.326 1.38143,3.736 3.27063,3.736 1.598,0 2.7663,-1.002 3.0042,-2.44 l -1.1079,-0.004 c -0.1882,0.931 -0.9695,1.442 -1.8892,1.442 -1.2465,0 -2.18753,-0.955 -2.18753,-2.734 0,-1.765 0.93753,-2.735 2.19103,-2.735 0.9269,0 1.7046,0.522 1.8857,1.463 z M 5.87984,125.727 H 0.269043 V 133 H 1.36279 v -6.335 h 3.4233 V 133 h 1.09375 z" />
  <path
     id="tver"
     opacity="0"
     fill="white"
     d="m 196.429,155.661 v -2.933 h -1.101 V 160 h 2.723 c 1.62,0 2.547,-0.902 2.543,-2.205 0.004,-1.3 -0.923,-2.134 -2.543,-2.134 z m 0,0.923 h 1.622 c 0.941,0 1.46,0.54 1.46,1.197 0,0.675 -0.519,1.296 -1.46,1.296 h -1.622 z M 187.424,160 h 1.097 v -2.557 h 1.492 c 1.687,0 2.521,-1.019 2.521,-2.361 0,-1.339 -0.827,-2.354 -2.518,-2.354 h -2.592 z m 1.097,-3.487 v -2.844 h 1.378 c 1.087,0 1.531,0.589 1.531,1.413 0,0.824 -0.444,1.431 -1.517,1.431 z M 179.899,160 h 4.602 v -0.944 h -3.505 v -2.227 h 3.224 v -0.941 h -3.224 v -2.216 h 3.462 v -0.944 h -4.559 z m -8.043,0 h 2.787 c 1.691,0 2.454,-0.841 2.454,-1.956 0,-1.126 -0.788,-1.762 -1.509,-1.801 v -0.071 c 0.668,-0.17 1.225,-0.625 1.225,-1.534 0,-1.076 -0.746,-1.91 -2.294,-1.91 h -2.663 z m 1.097,-0.941 v -2.329 h 1.623 c 0.881,0 1.431,0.568 1.431,1.26 0,0.611 -0.415,1.069 -1.47,1.069 z m 0,-3.185 v -2.213 h 1.499 c 0.87,0 1.285,0.459 1.285,1.062 0,0.703 -0.575,1.151 -1.314,1.151 z m -9.47,-2.202 h 2.266 V 160 h 1.094 v -6.328 h 2.269 v -0.944 h -5.629 z" />
  <path
     id="yaroslavl"
     opacity="0"
     fill="white"
     d="M 275.68359 174.62891 C 273.7946 174.62891 272.40625 176.03728 272.40625 178.36328 C 272.40625 180.68528 273.7946 182.09961 275.68359 182.09961 C 277.56559 182.09961 278.95703 180.68928 278.95703 178.36328 C 278.95703 176.03728 277.56559 174.62891 275.68359 174.62891 z M 284.86133 174.62891 C 282.97933 174.62891 281.5918 176.03728 281.5918 178.36328 C 281.5918 180.68928 282.97233 182.09961 284.86133 182.09961 C 286.45933 182.09961 287.62919 181.09815 287.86719 179.66016 L 286.75977 179.65625 C 286.57177 180.58725 285.78814 181.09766 284.86914 181.09766 C 283.62214 181.09766 282.68164 180.14228 282.68164 178.36328 C 282.68164 176.59828 283.62005 175.62891 284.87305 175.62891 C 285.80005 175.62891 286.57877 176.1508 286.75977 177.0918 L 287.86719 177.0918 C 287.61819 175.5368 286.39933 174.62891 284.86133 174.62891 z M 259.05664 174.72656 C 257.37064 174.72656 256.53906 175.66881 256.53906 177.00781 C 256.53906 177.98481 256.984 178.72664 257.875 179.05664 L 256.26367 182 L 257.51367 182 L 258.99023 179.24805 L 259.06055 179.24805 L 260.55273 179.24805 L 260.55273 182 L 261.65039 182 L 261.65039 174.72656 L 259.05664 174.72656 z M 264.74414 174.72656 L 264.74414 182 L 265.8418 182 L 265.8418 179.44336 L 267.33203 179.44336 C 269.01903 179.44336 269.85352 178.42403 269.85352 177.08203 C 269.85352 175.74303 269.02789 174.72656 267.33789 174.72656 L 264.74414 174.72656 z M 291.67188 174.72656 L 291.54688 178.14453 C 291.46888 180.24953 291.2118 181.02002 290.3418 181.04102 L 290.12891 181.04883 L 290.12891 182 L 290.44141 182 C 292.0964 182 292.49384 180.77154 292.58984 178.43555 L 292.70312 175.6582 L 295.18555 175.6582 L 295.18555 182 L 296.26953 182 L 296.26953 174.72656 L 291.67188 174.72656 z M 301.43359 174.72656 L 298.81641 182 L 299.98242 182 L 300.64844 180.07422 L 303.49023 180.07422 L 304.1543 182 L 305.31836 182 L 302.70117 174.72656 L 301.43359 174.72656 z M 307.86914 174.72656 L 307.86914 182 L 310.65625 182 C 312.34625 182 313.11133 181.15797 313.11133 180.04297 C 313.11133 178.91797 312.32256 178.28119 311.60156 178.24219 L 311.60156 178.17188 C 312.26956 178.00188 312.82617 177.54767 312.82617 176.63867 C 312.82617 175.56267 312.0812 174.72656 310.5332 174.72656 L 307.86914 174.72656 z M 316.90234 174.72656 L 316.7793 178.14453 C 316.7013 180.24953 316.44422 181.02002 315.57422 181.04102 L 315.36133 181.04883 L 315.36133 182 L 315.67383 182 C 317.32883 182 317.72627 180.77154 317.82227 178.43555 L 317.93555 175.6582 L 320.41992 175.6582 L 320.41992 182 L 321.50195 182 L 321.50195 174.72656 L 316.90234 174.72656 z M 324.60742 174.72656 L 324.60742 182 L 327.33008 182 C 328.94908 182 329.87705 181.09792 329.87305 179.79492 C 329.87705 178.49492 328.94908 177.66016 327.33008 177.66016 L 325.70703 177.66016 L 325.70703 174.72656 L 324.60742 174.72656 z M 275.68359 175.62891 C 276.93359 175.62891 277.87109 176.59128 277.87109 178.36328 C 277.87109 180.13528 276.93359 181.09766 275.68359 181.09766 C 274.4296 181.09766 273.49609 180.13528 273.49609 178.36328 C 273.49609 176.59128 274.4296 175.62891 275.68359 175.62891 z M 308.9668 175.66016 L 310.46484 175.66016 C 311.33484 175.66016 311.75195 176.11866 311.75195 176.72266 C 311.75195 177.42566 311.1755 177.87305 310.4375 177.87305 L 308.9668 177.87305 L 308.9668 175.66016 z M 259.17578 175.66797 L 260.55273 175.66797 L 260.55273 178.30273 L 259.16016 178.30273 C 258.09216 178.30273 257.64453 177.82881 257.64453 177.00781 C 257.64453 176.18381 258.09278 175.66797 259.17578 175.66797 z M 265.8418 175.66797 L 267.21875 175.66797 C 268.30575 175.66797 268.75 176.25803 268.75 177.08203 C 268.75 177.90603 268.30637 178.51367 267.23438 178.51367 L 265.8418 178.51367 L 265.8418 175.66797 z M 302.04102 176.04883 L 302.09766 176.04883 L 303.17188 179.15234 L 300.96875 179.15234 L 302.04102 176.04883 z M 325.70703 178.58398 L 327.33008 178.58398 C 328.27108 178.58398 328.78906 179.12425 328.78906 179.78125 C 328.78906 180.45525 328.27108 181.07617 327.33008 181.07617 L 325.70703 181.07617 L 325.70703 178.58398 z M 308.9668 178.72852 L 310.58984 178.72852 C 311.47084 178.72852 312.02148 179.29824 312.02148 179.99023 C 312.02148 180.60123 311.60578 181.05859 310.55078 181.05859 L 308.9668 181.05859 L 308.9668 178.72852 z " />
  <path
     id="manturovo"
     opacity="0"
     fill="white"
     d="m 415.235,118.364 c 0,-2.326 -1.392,-3.736 -3.274,-3.736 -1.889,0 -3.277,1.41 -3.277,3.736 0,2.322 1.388,3.736 3.277,3.736 1.882,0 3.274,-1.41 3.274,-3.736 z m -1.086,0 c 0,1.772 -0.938,2.734 -2.188,2.734 -1.253,0 -2.187,-0.962 -2.187,-2.734 0,-1.772 0.934,-2.735 2.187,-2.735 1.25,0 2.188,0.963 2.188,2.735 z M 400.875,122 h 2.788 c 1.69,0 2.453,-0.842 2.453,-1.957 0,-1.125 -0.788,-1.761 -1.509,-1.8 v -0.071 c 0.668,-0.17 1.225,-0.625 1.225,-1.534 0,-1.076 -0.745,-1.911 -2.294,-1.911 h -2.663 z m 1.097,-0.941 v -2.33 h 1.623 c 0.881,0 1.431,0.569 1.431,1.261 0,0.611 -0.415,1.069 -1.47,1.069 z m 0,-3.185 v -2.213 h 1.499 c 0.87,0 1.285,0.458 1.285,1.062 0,0.703 -0.575,1.151 -1.314,1.151 z m -3.965,0.49 c 0,-2.326 -1.392,-3.736 -3.274,-3.736 -1.889,0 -3.278,1.41 -3.278,3.736 0,2.322 1.389,3.736 3.278,3.736 1.882,0 3.274,-1.41 3.274,-3.736 z m -1.087,0 c 0,1.772 -0.937,2.734 -2.187,2.734 -1.254,0 -2.188,-0.962 -2.188,-2.734 0,-1.772 0.934,-2.735 2.188,-2.735 1.25,0 2.187,0.963 2.187,2.735 z M 383.793,122 h 1.097 v -2.557 h 1.492 c 1.687,0 2.521,-1.019 2.521,-2.361 0,-1.339 -0.827,-2.355 -2.518,-2.355 h -2.592 z m 1.097,-3.487 v -2.845 h 1.378 c 1.087,0 1.531,0.59 1.531,1.414 0,0.824 -0.444,1.431 -1.517,1.431 z m -8.479,3.587 h 0.498 c 1.136,0 1.512,-0.636 1.832,-1.361 l 2.514,-6.012 h -1.15 l -1.698,4.205 -1.907,-4.205 h -1.165 l 2.557,5.458 -0.103,0.26 c -0.156,0.38 -0.397,0.689 -0.941,0.689 h -0.437 z m -8.887,-6.428 h 2.266 V 122 h 1.094 v -6.328 h 2.269 v -0.945 h -5.629 z M 358.961,122 h 1.097 v -3.171 h 3.626 V 122 h 1.101 v -7.273 h -1.101 v 3.161 h -3.626 v -3.161 h -1.097 z m -7.888,0 0.668,-1.925 h 2.841 l 0.664,1.925 h 1.165 l -2.617,-7.273 h -1.268 L 349.909,122 Z m 0.988,-2.848 1.072,-3.104 h 0.057 l 1.072,3.104 z m -12.262,-4.425 V 122 h 1.044 v -5.266 h 0.067 l 2.145,5.255 h 0.867 l 2.145,-5.252 h 0.067 V 122 h 1.044 v -7.273 h -1.332 l -2.315,5.654 h -0.085 l -2.315,-5.654 z" />
  <path
     id="kotelnich"
     opacity="0"
     fill="white"
     d="m 476.722,142.727 h -1.023 c -0.039,0.199 -0.593,1.119 -1.655,1.119 v 0.902 c 0.824,0 1.396,-0.327 1.517,-0.54 h 0.06 V 150 h 1.101 z m -5.458,3.179 h -3.224 v 0.919 h 3.224 z m -11.797,-3.179 v 2.401 c -0.004,1.623 0.98,2.262 2.571,2.262 0.699,0 1.303,-0.089 1.825,-0.238 V 150 h 1.087 v -7.273 h -1.087 v 3.488 c -0.543,0.145 -1.218,0.234 -1.825,0.234 -0.948,0 -1.488,-0.32 -1.488,-1.321 v -2.401 z m -9.116,0 V 150 h 1.008 l 3.697,-5.334 h 0.067 V 150 h 1.098 v -7.273 h -1.016 l -3.7,5.341 h -0.068 v -5.341 z M 441.429,150 h 1.097 v -3.171 h 3.626 V 150 h 1.101 v -7.273 h -1.101 v 3.161 h -3.626 v -3.161 h -1.097 z m -7.004,-4.339 v -2.934 h -1.101 V 150 h 2.724 c 1.62,0 2.546,-0.902 2.543,-2.205 0.003,-1.3 -0.923,-2.134 -2.543,-2.134 z m 0,0.923 h 1.623 c 0.941,0 1.46,0.54 1.46,1.197 0,0.674 -0.519,1.296 -1.46,1.296 h -1.623 z M 424.079,150 h 0.313 c 1.655,0 2.053,-1.229 2.148,-3.565 l 0.114,-2.777 h 2.482 V 150 h 1.083 v -7.273 h -4.598 l -0.125,3.417 c -0.078,2.105 -0.333,2.876 -1.203,2.897 l -0.214,0.007 z m -6.975,0 h 4.603 v -0.945 h -3.505 v -2.226 h 3.224 v -0.941 h -3.224 v -2.216 h 3.462 v -0.945 h -4.56 z m -8.372,-6.328 h 2.266 V 150 h 1.094 v -6.328 h 2.269 v -0.945 h -5.629 z m -2.207,2.692 c 0,-2.326 -1.392,-3.736 -3.274,-3.736 -1.889,0 -3.277,1.41 -3.277,3.736 0,2.322 1.388,3.736 3.277,3.736 1.882,0 3.274,-1.41 3.274,-3.736 z m -1.086,0 c 0,1.772 -0.938,2.734 -2.188,2.734 -1.253,0 -2.187,-0.962 -2.187,-2.734 0,-1.772 0.934,-2.735 2.187,-2.735 1.25,0 2.188,0.963 2.188,2.735 z m -8.82,3.636 h 1.339 l -3.001,-3.984 3.019,-3.289 h -1.36 l -2.831,3.072 h -0.376 v -3.072 h -1.097 V 150 h 1.097 v -3.26 h 0.753 z" />
  <path
     id="glazov"
     opacity="0"
     fill="white"
     d="m 565.391,189 h 2.787 c 1.691,0 2.454,-0.842 2.454,-1.957 0,-1.125 -0.788,-1.761 -1.509,-1.8 v -0.071 c 0.667,-0.17 1.225,-0.625 1.225,-1.534 0,-1.076 -0.746,-1.911 -2.294,-1.911 h -2.663 z m 1.097,-0.941 v -2.33 h 1.623 c 0.88,0 1.431,0.569 1.431,1.261 0,0.611 -0.416,1.069 -1.47,1.069 z m 0,-3.185 v -2.213 h 1.499 c 0.87,0 1.285,0.458 1.285,1.062 0,0.703 -0.575,1.151 -1.314,1.151 z m -3.965,0.49 c 0,-2.326 -1.392,-3.736 -3.275,-3.736 -1.889,0 -3.277,1.41 -3.277,3.736 0,2.322 1.388,3.736 3.277,3.736 1.883,0 3.275,-1.41 3.275,-3.736 z m -1.087,0 c 0,1.772 -0.938,2.734 -2.188,2.734 -1.253,0 -2.187,-0.962 -2.187,-2.734 0,-1.772 0.934,-2.735 2.187,-2.735 1.25,0 2.188,0.963 2.188,2.735 z m -10.744,3.736 c 1.485,0 2.575,-0.888 2.571,-2.096 0.004,-0.919 -0.554,-1.58 -1.52,-1.729 v -0.057 c 0.76,-0.195 1.254,-0.792 1.25,-1.609 0.004,-1.068 -0.873,-1.981 -2.272,-1.981 -1.336,0 -2.408,0.806 -2.443,1.989 h 1.061 c 0.025,-0.668 0.654,-1.073 1.367,-1.073 0.743,0 1.229,0.451 1.226,1.122 0.003,0.703 -0.561,1.165 -1.368,1.165 h -0.614 v 0.895 h 0.614 c 1.009,0 1.591,0.511 1.591,1.243 0,0.707 -0.614,1.186 -1.47,1.186 -0.788,0 -1.403,-0.405 -1.445,-1.051 h -1.115 c 0.046,1.186 1.097,1.996 2.567,1.996 z m -10.32,-0.1 0.668,-1.925 h 2.841 l 0.664,1.925 h 1.165 l -2.618,-7.273 h -1.267 L 539.207,189 Z m 0.987,-2.848 1.073,-3.104 h 0.057 l 1.072,3.104 z M 530.52,189 h 0.312 c 1.655,0 2.053,-1.229 2.149,-3.565 l 0.113,-2.777 h 2.483 V 189 h 1.083 v -7.273 h -4.599 l -0.124,3.417 c -0.078,2.105 -0.334,2.876 -1.204,2.897 l -0.213,0.007 z m -2.186,-7.273 h -4.535 V 189 h 1.097 v -6.328 h 3.438 z" />
  <path
     id="perm"
     opacity="0"
     fill="white"
     d="m 561.933,120.184 v -2.933 h -1.101 v 7.273 h 2.724 c 1.619,0 2.546,-0.902 2.542,-2.206 0.004,-1.299 -0.923,-2.134 -2.542,-2.134 z m 0,0.924 h 1.623 c 0.941,0 1.459,0.539 1.459,1.196 0,0.675 -0.518,1.296 -1.459,1.296 h -1.623 z m -11.768,-3.857 v 7.273 h 1.044 v -5.267 h 0.067 l 2.145,5.256 h 0.867 l 2.144,-5.252 h 0.068 v 5.263 h 1.044 v -7.273 h -1.332 l -2.315,5.653 h -0.085 l -2.316,-5.653 z m -7.897,7.273 h 1.098 v -2.557 h 1.491 c 1.687,0 2.521,-1.019 2.521,-2.362 0,-1.338 -0.827,-2.354 -2.517,-2.354 h -2.593 z m 1.098,-3.488 v -2.844 h 1.377 c 1.087,0 1.531,0.59 1.531,1.413 0,0.824 -0.444,1.431 -1.516,1.431 z m -8.623,3.488 h 4.602 v -0.945 h -3.505 v -2.226 h 3.225 v -0.942 h -3.225 v -2.215 h 3.462 v -0.945 h -4.559 z m -3.178,-7.273 h -5.611 v 7.273 h 1.094 v -6.336 h 3.423 v 6.336 h 1.094 z" />
  <path
     id="tumen"
     opacity="0"
     fill="white"
     d="m 646.606,157.661 v -2.934 h -1.101 V 162 h 2.724 c 1.619,0 2.546,-0.902 2.543,-2.205 0.003,-1.3 -0.924,-2.134 -2.543,-2.134 z m 0,0.923 h 1.623 c 0.941,0 1.46,0.54 1.46,1.197 0,0.674 -0.519,1.296 -1.46,1.296 h -1.623 z M 636.576,162 h 1.098 v -3.171 h 3.625 V 162 h 1.101 v -7.273 h -1.101 v 3.161 h -3.625 v -3.161 h -1.098 z m -7.525,0 h 4.602 v -0.945 h -3.505 v -2.226 h 3.225 v -0.941 h -3.225 v -2.216 h 3.463 v -0.945 h -4.56 z m -10.66,-7.273 V 162 h 1.044 v -5.266 h 0.067 l 2.145,5.255 h 0.867 l 2.145,-5.252 h 0.067 V 162 h 1.044 v -7.273 h -1.332 l -2.315,5.654 h -0.085 l -2.315,-5.654 z m -10.481,0 h -1.097 V 162 h 1.097 v -3.089 h 1.275 c 0.199,1.995 1.513,3.189 3.249,3.189 1.882,0 3.274,-1.41 3.274,-3.736 0,-2.326 -1.392,-3.736 -3.274,-3.736 -1.786,0 -3.125,1.261 -3.267,3.363 h -1.257 z m 6.712,3.637 c 0,1.772 -0.938,2.734 -2.188,2.734 -1.253,0 -2.187,-0.962 -2.187,-2.734 0,-1.772 0.934,-2.735 2.187,-2.735 1.25,0 2.188,0.963 2.188,2.735 z m -16.182,-2.692 h 2.266 V 162 h 1.094 v -6.328 h 2.269 v -0.945 h -5.629 z" />
  <path
     id="omsk"
     opacity="0"
     fill="white"
     d="m 724.143,184 h 1.339 l -3,-3.984 3.018,-3.289 h -1.36 l -2.83,3.072 h -0.377 v -3.072 h -1.097 V 184 h 1.097 v -3.26 h 0.753 z m -7.12,-4.908 c -0.249,-1.555 -1.467,-2.464 -3.004,-2.464 -1.882,0 -3.271,1.41 -3.271,3.736 0,2.326 1.381,3.736 3.271,3.736 1.598,0 2.766,-1.002 3.004,-2.44 l -1.108,-0.004 c -0.188,0.931 -0.97,1.442 -1.889,1.442 -1.247,0 -2.188,-0.955 -2.188,-2.734 0,-1.765 0.938,-2.735 2.191,-2.735 0.927,0 1.705,0.522 1.886,1.463 z m -16.701,-2.365 V 184 h 1.044 v -5.266 h 0.068 l 2.145,5.255 h 0.866 l 2.145,-5.252 h 0.067 V 184 h 1.045 v -7.273 h -1.332 l -2.315,5.654 h -0.086 l -2.315,-5.654 z m -2.868,3.637 c 0,-2.326 -1.392,-3.736 -3.274,-3.736 -1.889,0 -3.278,1.41 -3.278,3.736 0,2.322 1.389,3.736 3.278,3.736 1.882,0 3.274,-1.41 3.274,-3.736 z m -1.086,0 c 0,1.772 -0.938,2.734 -2.188,2.734 -1.254,0 -2.187,-0.962 -2.187,-2.734 0,-1.772 0.933,-2.735 2.187,-2.735 1.25,0 2.188,0.963 2.188,2.735 z" />
  <path
     id="krasnoyarsk"
     opacity="0"
     fill="white"
     d="m 880.577,105 h 1.339 l -3.001,-3.984 3.019,-3.2886 h -1.36 l -2.831,3.0716 h -0.376 V 97.7274 H 876.27 V 105 h 1.097 v -3.26 h 0.753 z m -7.121,-4.908 c -0.248,-1.555 -1.466,-2.4641 -3.004,-2.4641 -1.882,0 -3.27,1.4098 -3.27,3.7361 0,2.326 1.381,3.736 3.27,3.736 1.598,0 2.767,-1.002 3.004,-2.44 l -1.107,-0.004 c -0.189,0.931 -0.97,1.442 -1.89,1.442 -1.246,0 -2.187,-0.955 -2.187,-2.734 0,-1.7652 0.937,-2.7346 2.191,-2.7346 0.927,0 1.704,0.522 1.886,1.4626 z M 859.52,105 h 1.097 v -2.557 h 1.491 c 1.687,0 2.522,-1.019 2.522,-2.361 0,-1.339 -0.828,-2.3546 -2.518,-2.3546 h -2.592 z m 1.097,-3.487 v -2.8446 h 1.378 c 1.086,0 1.53,0.5895 1.53,1.4136 0,0.824 -0.444,1.431 -1.516,1.431 z M 856.425,105 v -7.2726 h -2.592 c -1.687,0 -2.518,0.941 -2.518,2.2796 0,0.977 0.444,1.719 1.335,2.049 L 851.038,105 h 1.25 l 1.477,-2.752 c 0.025,0 0.046,0 0.071,0 h 1.492 V 105 Z m -1.097,-3.697 h -1.392 c -1.069,0 -1.517,-0.475 -1.517,-1.296 0,-0.8237 0.448,-1.3386 1.531,-1.3386 h 1.378 z m -6.622,0.061 c 0,-2.3263 -1.392,-3.7361 -3.274,-3.7361 -1.889,0 -3.278,1.4098 -3.278,3.7361 0,2.322 1.389,3.736 3.278,3.736 1.882,0 3.274,-1.41 3.274,-3.736 z m -1.087,0 c 0,1.772 -0.937,2.734 -2.187,2.734 -1.254,0 -2.188,-0.962 -2.188,-2.734 0,-1.7723 0.934,-2.7346 2.188,-2.7346 1.25,0 2.187,0.9623 2.187,2.7346 z M 833.467,105 h 1.097 v -3.171 h 3.626 V 105 h 1.101 v -7.2726 h -1.101 v 3.1606 h -3.626 v -3.1606 h -1.097 z m -2.813,-4.908 c -0.249,-1.555 -1.467,-2.4641 -3.004,-2.4641 -1.883,0 -3.271,1.4098 -3.271,3.7361 0,2.326 1.381,3.736 3.271,3.736 1.598,0 2.766,-1.002 3.004,-2.44 l -1.108,-0.004 c -0.188,0.931 -0.97,1.442 -1.889,1.442 -1.247,0 -2.188,-0.955 -2.188,-2.734 0,-1.7652 0.938,-2.7346 2.191,-2.7346 0.927,0 1.705,0.522 1.886,1.4626 z m -13.587,4.908 0.668,-1.925 h 2.841 L 821.24,105 h 1.165 l -2.617,-7.2726 H 818.52 L 815.903,105 Z m 0.988,-2.848 1.072,-3.1036 h 0.057 l 1.072,3.1036 z M 809.328,105 h 1.097 v -2.557 h 1.492 c 1.687,0 2.521,-1.019 2.521,-2.361 0,-1.339 -0.827,-2.3546 -2.518,-2.3546 h -2.592 z m 1.097,-3.487 v -2.8446 h 1.378 c 1.087,0 1.531,0.5895 1.531,1.4136 0,0.824 -0.444,1.431 -1.517,1.431 z M 805.378,105 h 1.339 l -3.001,-3.984 3.018,-3.2886 h -1.36 l -2.83,3.0716 h -0.376 V 97.7274 H 801.07 V 105 h 1.098 v -3.26 h 0.752 z" />
  <path
     id="ulanUde"
     opacity="0"
     fill="white"
     d="m 931.682,159.692 c 0.139,1.378 1.041,2.408 2.795,2.408 1.754,0 2.876,-1.311 2.876,-3.349 v -0.757 c 0,-2.038 -1.136,-3.366 -2.936,-3.366 -1.712,0 -2.596,1.044 -2.738,2.45 h 1.118 c 0.114,-0.944 0.558,-1.505 1.62,-1.505 1.168,0 1.821,0.944 1.825,2.414 h -2.681 v 0.931 h 2.677 c -0.046,1.282 -0.607,2.251 -1.761,2.251 -1.09,0 -1.555,-0.518 -1.68,-1.477 z m -9.456,4.066 h 1.051 V 162 h 4.883 v 1.747 h 1.051 v -2.677 h -0.824 v -6.343 h -4.485 l -0.17,3.072 c -0.11,2.024 -0.54,2.859 -1.027,3.271 h -0.479 z m 1.772,-2.688 c 0.415,-0.664 0.696,-1.733 0.785,-3.271 l 0.113,-2.127 h 2.44 v 5.398 z m -8.603,1.03 h 0.497 c 1.136,0 1.513,-0.636 1.832,-1.361 l 2.515,-6.012 h -1.151 l -1.697,4.205 -1.907,-4.205 h -1.165 l 2.557,5.458 -0.103,0.26 c -0.157,0.38 -0.398,0.689 -0.941,0.689 h -0.437 z m -2.881,-4.194 h -3.224 v 0.919 h 3.224 z M 900.464,162 h 1.097 v -3.171 h 3.626 V 162 h 1.101 v -7.273 h -1.101 v 3.161 h -3.626 v -3.161 h -1.097 z m -7.888,0 0.668,-1.925 h 2.841 l 0.664,1.925 h 1.165 l -2.618,-7.273 h -1.267 L 891.412,162 Z m 0.988,-2.848 1.072,-3.104 h 0.057 l 1.072,3.104 z M 882.724,162 h 0.313 c 1.654,0 2.052,-1.229 2.148,-3.565 l 0.114,-2.777 h 2.482 V 162 h 1.083 v -7.273 h -4.599 l -0.124,3.417 c -0.078,2.105 -0.334,2.876 -1.204,2.897 l -0.213,0.007 z m -6.831,0.1 h 0.497 c 1.136,0 1.513,-0.636 1.832,-1.361 l 2.515,-6.012 h -1.151 l -1.697,4.205 -1.907,-4.205 h -1.165 l 2.557,5.458 -0.103,0.26 c -0.157,0.38 -0.398,0.689 -0.941,0.689 h -0.437 z" />
  <path
     d="M106.743 34.3367C106.743 36.2657 105.179 37.8296 103.25 37.8296C101.321 37.8296 99.7573 36.2657 99.7573 34.3367C99.7573 32.4076 101.321 30.8438 103.25 30.8438C105.179 30.8438 106.743 32.4076 106.743 34.3367Z"
     fill="#272722"
     id="path190" />
  <path
     fill-rule="evenodd"
     clip-rule="evenodd"
     d="M103.25 36.8296C104.627 36.8296 105.743 35.7135 105.743 34.3367C105.743 32.9599 104.627 31.8438 103.25 31.8438C101.873 31.8438 100.757 32.9599 100.757 34.3367C100.757 35.7135 101.873 36.8296 103.25 36.8296ZM103.25 37.8296C105.179 37.8296 106.743 36.2657 106.743 34.3367C106.743 32.4076 105.179 30.8438 103.25 30.8438C101.321 30.8438 99.7573 32.4076 99.7573 34.3367C99.7573 36.2657 101.321 37.8296 103.25 37.8296Z"
     fill="white"
     id="pointNovgorod" />
  <path
     d="M20.9858 115.493C20.9858 117.422 19.422 118.986 17.4929 118.986C15.5638 118.986 14 117.422 14 115.493C14 113.564 15.5638 112 17.4929 112C19.422 112 20.9858 113.564 20.9858 115.493Z"
     fill="#131313"
     id="path194" />
  <path
     fill-rule="evenodd"
     clip-rule="evenodd"
     d="M17.4929 117.986C18.8697 117.986 19.9858 116.87 19.9858 115.493C19.9858 114.116 18.8697 113 17.4929 113C16.1161 113 15 114.116 15 115.493C15 116.87 16.1161 117.986 17.4929 117.986ZM17.4929 118.986C19.422 118.986 20.9858 117.422 20.9858 115.493C20.9858 113.564 19.422 112 17.4929 112C15.5638 112 14 113.564 14 115.493C14 117.422 15.5638 118.986 17.4929 118.986Z"
     fill="white"
     id="pointPskov" />
  <path
     d="M215.023 156.59C215.023 158.519 213.459 160.083 211.53 160.083C209.601 160.083 208.037 158.519 208.037 156.59C208.037 154.661 209.601 153.097 211.53 153.097C213.459 153.097 215.023 154.661 215.023 156.59Z"
     fill="#4D5648"
     id="path198" />
  <path
     fill-rule="evenodd"
     clip-rule="evenodd"
     d="M211.53 159.083C212.907 159.083 214.023 157.966 214.023 156.59C214.023 155.213 212.907 154.097 211.53 154.097C210.153 154.097 209.037 155.213 209.037 156.59C209.037 157.966 210.153 159.083 211.53 159.083ZM211.53 160.083C213.459 160.083 215.023 158.519 215.023 156.59C215.023 154.661 213.459 153.097 211.53 153.097C209.601 153.097 208.037 154.661 208.037 156.59C208.037 158.519 209.601 160.083 211.53 160.083Z"
     fill="white"
     id="pointTver" />
  <path
     d="M247.333 178.421C247.333 180.35 245.769 181.914 243.84 181.914C241.911 181.914 240.347 180.35 240.347 178.421C240.347 176.492 241.911 174.928 243.84 174.928C245.769 174.928 247.333 176.492 247.333 178.421Z"
     fill="#47443E"
     id="path202" />
  <path
     fill-rule="evenodd"
     clip-rule="evenodd"
     d="M243.84 180.914C245.216 180.914 246.333 179.797 246.333 178.421C246.333 177.044 245.216 175.928 243.84 175.928C242.463 175.928 241.347 177.044 241.347 178.421C241.347 179.797 242.463 180.914 243.84 180.914ZM243.84 181.914C245.769 181.914 247.333 180.35 247.333 178.421C247.333 176.492 245.769 174.928 243.84 174.928C241.911 174.928 240.347 176.492 240.347 178.421C240.347 180.35 241.911 181.914 243.84 181.914Z"
     fill="white"
     id="path204" />
  <path
     d="M335.529 127.773C335.529 129.702 333.965 131.266 332.036 131.266C330.107 131.266 328.543 129.702 328.543 127.773C328.543 125.844 330.107 124.28 332.036 124.28C333.965 124.28 335.529 125.844 335.529 127.773Z"
     fill="#93A47C"
     id="path206" />
  <path
     fill-rule="evenodd"
     clip-rule="evenodd"
     d="M332.036 130.266C333.413 130.266 334.529 129.15 334.529 127.773C334.529 126.396 333.413 125.28 332.036 125.28C330.659 125.28 329.543 126.396 329.543 127.773C329.543 129.15 330.659 130.266 332.036 130.266ZM332.036 131.266C333.965 131.266 335.529 129.702 335.529 127.773C335.529 125.844 333.965 124.28 332.036 124.28C330.107 124.28 328.543 125.844 328.543 127.773C328.543 129.702 330.107 131.266 332.036 131.266Z"
     fill="white"
     id="pointManturovo" />
  <path
     d="M413.246 161.83C413.246 163.759 411.682 165.323 409.753 165.323C407.824 165.323 406.26 163.759 406.26 161.83C406.26 159.901 407.824 158.337 409.753 158.337C411.682 158.337 413.246 159.901 413.246 161.83Z"
     fill="#738F8C"
     id="path210" />
  <path
     fill-rule="evenodd"
     clip-rule="evenodd"
     d="M409.753 164.323C411.13 164.323 412.246 163.207 412.246 161.83C412.246 160.453 411.13 159.337 409.753 159.337C408.376 159.337 407.26 160.453 407.26 161.83C407.26 163.207 408.376 164.323 409.753 164.323ZM409.753 165.323C411.682 165.323 413.246 163.759 413.246 161.83C413.246 159.901 411.682 158.337 409.753 158.337C407.824 158.337 406.26 159.901 406.26 161.83C406.26 163.759 407.824 165.323 409.753 165.323Z"
     fill="white"
     id="pointKotelnich" />
  <path
     d="M515.414 185.406C515.414 187.335 513.85 188.899 511.921 188.899C509.992 188.899 508.428 187.335 508.428 185.406C508.428 183.477 509.992 181.913 511.921 181.913C513.85 181.913 515.414 183.477 515.414 185.406Z"
     fill="#789186"
     id="path214" />
  <path
     fill-rule="evenodd"
     clip-rule="evenodd"
     d="M511.921 187.899C513.297 187.899 514.414 186.783 514.414 185.406C514.414 184.029 513.297 182.913 511.921 182.913C510.544 182.913 509.428 184.029 509.428 185.406C509.428 186.783 510.544 187.899 511.921 187.899ZM511.921 188.899C513.85 188.899 515.414 187.335 515.414 185.406C515.414 183.477 513.85 181.913 511.921 181.913C509.992 181.913 508.428 183.477 508.428 185.406C508.428 187.335 509.992 188.899 511.921 188.899Z"
     fill="white"
     id="pointGlazov" />
  <path
     d="M548.596 133.886C548.596 135.816 547.032 137.379 545.103 137.379C543.174 137.379 541.61 135.816 541.61 133.886C541.61 131.957 543.174 130.394 545.103 130.394C547.032 130.394 548.596 131.957 548.596 133.886Z"
     fill="#8CBABB"
     id="path218" />
  <path
     fill-rule="evenodd"
     clip-rule="evenodd"
     d="M545.103 136.379C546.48 136.379 547.596 135.263 547.596 133.886C547.596 132.51 546.48 131.394 545.103 131.394C543.726 131.394 542.61 132.51 542.61 133.886C542.61 135.263 543.726 136.379 545.103 136.379ZM545.103 137.379C547.032 137.379 548.596 135.816 548.596 133.886C548.596 131.957 547.032 130.394 545.103 130.394C543.174 130.394 541.61 131.957 541.61 133.886C541.61 135.816 543.174 137.379 545.103 137.379Z"
     fill="white"
     id="pointPerm" />
  <path
     d="M605.356 173.181C605.356 175.11 603.793 176.674 601.864 176.674C599.934 176.674 598.371 175.11 598.371 173.181C598.371 171.252 599.934 169.688 601.864 169.688C603.793 169.688 605.356 171.252 605.356 173.181Z"
     fill="#414847"
     id="path222" />
  <path
     fill-rule="evenodd"
     clip-rule="evenodd"
     d="M601.864 175.674C603.24 175.674 604.356 174.558 604.356 173.181C604.356 171.805 603.24 170.688 601.864 170.688C600.487 170.688 599.371 171.805 599.371 173.181C599.371 174.558 600.487 175.674 601.864 175.674ZM601.864 176.674C603.793 176.674 605.356 175.11 605.356 173.181C605.356 171.252 603.793 169.688 601.864 169.688C599.934 169.688 598.371 171.252 598.371 173.181C598.371 175.11 599.934 176.674 601.864 176.674Z"
     fill="white"
     id="pointTumen" />
  <path
     d="M711.017 160.083C711.017 162.012 709.453 163.576 707.524 163.576C705.595 163.576 704.031 162.012 704.031 160.083C704.031 158.154 705.595 156.59 707.524 156.59C709.453 156.59 711.017 158.154 711.017 160.083Z"
     fill="#577379"
     id="path226" />
  <path
     fill-rule="evenodd"
     clip-rule="evenodd"
     d="M707.524 162.576C708.9 162.576 710.017 161.46 710.017 160.083C710.017 158.706 708.9 157.59 707.524 157.59C706.147 157.59 705.031 158.706 705.031 160.083C705.031 161.46 706.147 162.576 707.524 162.576ZM707.524 163.576C709.453 163.576 711.017 162.012 711.017 160.083C711.017 158.154 709.453 156.59 707.524 156.59C705.595 156.59 704.031 158.154 704.031 160.083C704.031 162.012 705.595 163.576 707.524 163.576Z"
     fill="white"
     id="pointOmsk" />
  <path
     d="M845.947 112.928C845.947 114.858 844.383 116.421 842.454 116.421C840.525 116.421 838.961 114.858 838.961 112.928C838.961 110.999 840.525 109.436 842.454 109.436C844.383 109.436 845.947 110.999 845.947 112.928Z"
     fill="#3E403A"
     id="path230" />
  <path
     fill-rule="evenodd"
     clip-rule="evenodd"
     d="M842.454 115.421C843.831 115.421 844.947 114.305 844.947 112.928C844.947 111.552 843.831 110.436 842.454 110.436C841.077 110.436 839.961 111.552 839.961 112.928C839.961 114.305 841.077 115.421 842.454 115.421ZM842.454 116.421C844.383 116.421 845.947 114.858 845.947 112.928C845.947 110.999 844.383 109.436 842.454 109.436C840.525 109.436 838.961 110.999 838.961 112.928C838.961 114.858 840.525 116.421 842.454 116.421Z"
     fill="white"
     id="pointKrasnoyarsk" />
  <path
     d="M908.986 140.493C908.986 142.422 907.422 143.986 905.493 143.986C903.564 143.986 902 142.422 902 140.493C902 138.564 903.564 137 905.493 137C907.422 137 908.986 138.564 908.986 140.493Z"
     fill="#181A19"
     id="path234" />
  <path
     fill-rule="evenodd"
     clip-rule="evenodd"
     d="M905.493 142.986C906.87 142.986 907.986 141.87 907.986 140.493C907.986 139.116 906.87 138 905.493 138C904.116 138 903 139.116 903 140.493C903 141.87 904.116 142.986 905.493 142.986ZM905.493 143.986C907.422 143.986 908.986 142.422 908.986 140.493C908.986 138.564 907.422 137 905.493 137C903.564 137 902 138.564 902 140.493C902 142.422 903.564 143.986 905.493 143.986Z"
     fill="white"
     id="pointUlanUde" />

  <animate href="#pathLine2" id="p1" attributeName="stroke-dashoffset" begin="0s; p2.end" values="1282; 0" dur="20s" repeatCount="1" calcMode="linear" fill="freeze" />
  <animate href="#pathLine3" id="p2" attributeName="stroke-dashoffset" begin="p1.end" values="1282; 0" dur="20s" repeatCount="1" calcMode="linear" />

  <!--  Pskov  -->
  <animate href="#pskov" id="animPskov" attributeName="opacity" begin="p1.begin" values="0; 1" dur="1s" fill="freeze" repeatCount="1" calcMode="linear" />

  <animate href="#pskov" id="animPskov" attributeName="opacity" begin="p2.begin" values="1; 0" dur="1s" fill="freeze" repeatCount="1" calcMode="linear" />

  <!--  Novgorod  -->
  <animate href="#novgorod" id="animNov" attributeName="opacity" begin="p1.begin + 2s" values="0; 1" dur="1s" fill="freeze" repeatCount="1" calcMode="linear" />

  <animate href="#novgorod" id="animNov" attributeName="opacity" begin="p2.begin + 2s" values="1; 0" dur="1s" fill="freeze" repeatCount="1" calcMode="linear" />

  <!--  Tver  -->
  <animate href="#tver" id="animTver" attributeName="opacity" begin="p1.begin + 4.5s" values="0; 1" dur="1s" fill="freeze" repeatCount="1" calcMode="linear" />

  <animate href="#tver" id="animTver" attributeName="opacity" begin="p2.begin + 4.5s" values="1; 0" dur="1s" fill="freeze" repeatCount="1" calcMode="linear" />

  <!--  yaroslavl  -->
  <animate href="#yaroslavl" id="animYaroslavl" attributeName="opacity" begin="p1.begin + 5.5s" values="0; 1" dur="1s" fill="freeze" repeatCount="1" calcMode="linear" />

  <animate href="#yaroslavl" id="animYaroslavl" attributeName="opacity" begin="p2.begin + 5.5s" values="1; 0" dur="1s" fill="freeze" repeatCount="1" calcMode="linear" />

  <!--  manturovo  -->
  <animate href="#manturovo" id="animManturovo" attributeName="opacity" begin="p1.begin + 7.5s" values="0; 1" dur="1s" fill="freeze" repeatCount="1" calcMode="linear" />

  <animate href="#manturovo" id="animManturovo" attributeName="opacity" begin="p2.begin + 7.5s" values="1; 0" dur="1s" fill="freeze" repeatCount="1" calcMode="linear" />

  <!--  kotelnich  -->
  <animate href="#kotelnich" id="animKotelnich" attributeName="opacity" begin="p1.begin + 9s" values="0; 1" dur="1s" fill="freeze" repeatCount="1" calcMode="linear" />

  <animate href="#kotelnich" id="animKotelnich" attributeName="opacity" begin="p2.begin + 9s" values="1; 0" dur="1s" fill="freeze" repeatCount="1" calcMode="linear" />

  <!--  glazov  -->
  <animate href="#glazov" id="animGlazov" attributeName="opacity" begin="p1.begin + 11.8s" values="0; 1" dur="1s" fill="freeze" repeatCount="1" calcMode="linear" />

  <animate href="#glazov" id="animGlazov" attributeName="opacity" begin="p2.begin + 11.8s" values="1; 0" dur="1s" fill="freeze" repeatCount="1" calcMode="linear" />

  <!--  perm  -->
  <animate href="#perm" id="animPerm" attributeName="opacity" begin="p1.begin + 13s" values="0; 1" dur="1s" fill="freeze" repeatCount="1" calcMode="linear" />

  <animate href="#perm" id="animPerm" attributeName="opacity" begin="p2.begin + 13s" values="1; 0" dur="1s" fill="freeze" repeatCount="1" calcMode="linear" />

  <!--  tumen  -->
  <animate href="#tumen" id="animTumen" attributeName="opacity" begin="p1.begin + 14" values="0; 1" dur="1s" fill="freeze" repeatCount="1" calcMode="linear" />

  <animate href="#tumen" id="animTumen" attributeName="opacity" begin="p2.begin + 14" values="1; 0" dur="1s" fill="freeze" repeatCount="1" calcMode="linear" />

  <!--  omsk  -->
  <animate href="#omsk" id="animOmsk" attributeName="opacity" begin="p1.begin + 15.8s" values="0; 1" dur="1s" fill="freeze" repeatCount="1" calcMode="linear" />

  <animate href="#omsk" id="animOmsk" attributeName="opacity" begin="p2.begin + 15.8s" values="1; 0" dur="1s" fill="freeze" repeatCount="1" calcMode="linear" />

  <!--  krasnoyarsk  -->
  <animate href="#krasnoyarsk" id="animKrasnoyarsk" attributeName="opacity" begin="p1.begin + 18.8s" values="0; 1" dur="1s" fill="freeze" repeatCount="1" calcMode="linear" />

  <animate href="#krasnoyarsk" id="animKrasnoyarsk" attributeName="opacity" begin="p2.begin + 18.8s" values="1; 0" dur="1s" fill="freeze" repeatCount="1" calcMode="linear" />

  <!--  ulan-ude  -->
  <animate href="#ulanUde" id="animUlanUe" attributeName="opacity" begin="p1.end" values="0; 1" dur="1s" fill="freeze" repeatCount="1" calcMode="linear" />

  <animate href="#ulanUde" id="animUlanUe" attributeName="opacity" begin="p2.end" values="1; 0" dur="1s" fill="freeze" repeatCount="1" calcMode="linear" />

</svg>
